<?xml version="1.0" encoding="UTF-8"?>
<svg width="32px" height="32px" viewBox="0 0 32 32" version="1.1" xmlns="http://www.w3.org/2000/svg" xmlns:xlink="http://www.w3.org/1999/xlink">
    <title>My Points</title>
    <g id="Export" stroke="none" stroke-width="1" fill="none" fill-rule="evenodd">
        <g id="My-Points">
            <polygon id="Path" points="0 0 32 0 32 32 0 32"></polygon>
            <g id="Group-9" transform="translate(6.666667, 4.000000)" stroke="#1A1A1A" stroke-linecap="round" stroke-linejoin="round" stroke-width="1.5">
                <ellipse id="Oval" cx="9.33333333" cy="5.83333333" rx="9.33333333" ry="5.83333333"></ellipse>
                <path d="M18.6666667,17.5 C18.6666667,14.278339 14.487991,11.6666667 9.33333333,11.6666667 C4.17867567,11.6666667 0,14.278339 0,17.5" id="Oval-Copy" transform="translate(9.333333, 14.583333) scale(1, -1) translate(-9.333333, -14.583333) "></path>
                <path d="M18.6666667,23.3333333 C18.6666667,17.7033296 18.6666667,13.8144407 18.6666667,11.6666667 C18.6666667,8.44500563 14.487991,5.83333333 9.33333333,5.83333333 C4.17867567,5.83333333 0,8.44500563 0,11.6666667 C0,13.8144407 0,17.7033296 0,23.3333333" id="Oval-Copy-2" transform="translate(9.333333, 14.583333) scale(1, -1) translate(-9.333333, -14.583333) "></path>
            </g>
        </g>
    </g>
</svg>