<?xml version="1.0" encoding="UTF-8"?>
<svg width="24px" height="24px" viewBox="0 0 24 24" version="1.1" xmlns="http://www.w3.org/2000/svg" xmlns:xlink="http://www.w3.org/1999/xlink">
    <title>Apple</title>
    <g id="Export" stroke="none" stroke-width="1" fill="none" fill-rule="evenodd">
        <g id="Apple">
            <rect id="Rectangle" x="0" y="0" width="24" height="24"></rect>
            <path d="M22,17.607 C21.214,19.887 18.861,23.924 16.437,23.968 C14.829,23.999 14.312,23.015 12.474,23.015 C10.637,23.015 10.062,23.938 8.542,23.998 C5.97,24.097 2,18.171 2,13.003 C2,8.256 5.308,5.903 8.198,5.86 C9.748,5.832 11.212,6.905 12.157,6.905 C13.106,6.905 14.884,5.615 16.753,5.804 C17.535,5.837 19.732,6.119 21.142,8.181 C17.401,10.623 17.984,15.73 22,17.607 Z M16.778,0 C13.952,0.114 11.646,3.079 11.968,5.531 C14.58,5.734 17.086,2.806 16.778,0 Z" id="Shape" fill="#000000" fill-rule="nonzero"></path>
        </g>
    </g>
</svg>