<?xml version="1.0" encoding="UTF-8"?>
<svg width="28px" height="28px" viewBox="0 0 28 28" version="1.1" xmlns="http://www.w3.org/2000/svg" xmlns:xlink="http://www.w3.org/1999/xlink">
    <title>Bin</title>
    <g id="Export" stroke="none" stroke-width="1" fill="none" fill-rule="evenodd">
        <g id="Bin">
            <polygon id="Path" points="0 0 28 0 28 28 0 28"></polygon>
            <line x1="4.66666667" y1="8.16666667" x2="23.3333333" y2="8.16666667" id="Path" stroke="#1A1A1A" stroke-width="1.5" stroke-linecap="round" stroke-linejoin="round"></line>
            <line x1="11.6666667" y1="12.8333333" x2="11.6666667" y2="19.8333333" id="Path" stroke="#1A1A1A" stroke-width="1.5" stroke-linecap="round" stroke-linejoin="round"></line>
            <line x1="16.3333333" y1="12.8333333" x2="16.3333333" y2="19.8333333" id="Path" stroke="#1A1A1A" stroke-width="1.5" stroke-linecap="round" stroke-linejoin="round"></line>
            <path d="M5.83333333,8.16666667 L7,22.1666667 C7,23.4553311 8.04466892,24.5 9.33333333,24.5 L18.6666667,24.5 C19.9553311,24.5 21,23.4553311 21,22.1666667 L22.1666667,8.16666667" id="Path" stroke="#1A1A1A" stroke-width="1.5" stroke-linecap="round" stroke-linejoin="round"></path>
            <path d="M10.5,8.16666667 L10.5,4.66666667 C10.5,4.02233446 11.0223345,3.5 11.6666667,3.5 L16.3333333,3.5 C16.9776655,3.5 17.5,4.02233446 17.5,4.66666667 L17.5,8.16666667" id="Path" stroke="#1A1A1A" stroke-width="1.5" stroke-linecap="round" stroke-linejoin="round"></path>
        </g>
    </g>
</svg>