<?xml version="1.0" encoding="UTF-8"?>
<svg width="24px" height="24px" viewBox="0 0 24 24" version="1.1" xmlns="http://www.w3.org/2000/svg" xmlns:xlink="http://www.w3.org/1999/xlink">
    <title>Swatches</title>
    <g id="Export" stroke="none" stroke-width="1" fill="none" fill-rule="evenodd">
        <g id="Swatches">
            <polygon id="Path" points="0 0 24 0 24 24 0 24"></polygon>
            <path d="M19,3 L15,3 C13.8954305,3 13,3.8954305 13,5 L13,17 C13,19.209139 14.790861,21 17,21 C19.209139,21 21,19.209139 21,17 L21,5 C21,3.8954305 20.1045695,3 19,3" id="Path" stroke="#A3A3A3" stroke-width="1.5" stroke-linecap="round" stroke-linejoin="round"></path>
            <path d="M13,7.35 L11,5.35 C10.2190003,4.56923612 8.9529997,4.56923612 8.172,5.35 L5.344,8.178 C4.56323612,8.9589997 4.56323612,10.2250003 5.344,11.006 L14.344,20.006" id="Path" stroke="#A3A3A3" stroke-width="1.5" stroke-linecap="round" stroke-linejoin="round"></path>
            <path d="M7.3,13 L5,13 C3.8954305,13 3,13.8954305 3,15 L3,19 C3,20.1045695 3.8954305,21 5,21 L17,21" id="Path" stroke="#A3A3A3" stroke-width="1.5" stroke-linecap="round" stroke-linejoin="round"></path>
            <line x1="17" y1="17" x2="17" y2="17.01" id="Path" stroke="#A3A3A3" stroke-width="1.5" stroke-linecap="round" stroke-linejoin="round"></line>
        </g>
    </g>
</svg>